<svg width="43" height="62" viewBox="0 0 43 62" fill="none" xmlns="http://www.w3.org/2000/svg">
<g clip-path="url(#clip0_2_162)">
<path d="M21.2153 10.2302C14.8986 10.2302 9.76079 15.3604 9.76079 21.6677C9.76079 22.7209 10.6151 23.574 11.6699 23.574C12.7247 23.574 13.579 22.7209 13.579 21.6677C13.579 17.4621 17.0058 14.0427 21.2153 14.0427C22.2701 14.0427 23.1244 13.1897 23.1244 12.1365C23.1244 11.0833 22.2701 10.2302 21.2153 10.2302ZM11.677 55.4048C11.677 55.7801 11.788 56.1458 11.9968 56.458L14.9213 60.8471C15.2757 61.3785 15.8723 61.6978 16.5106 61.6978H25.9189C26.5584 61.6978 27.155 61.3785 27.5082 60.8471L30.4327 56.458C30.6403 56.1458 30.7512 55.7789 30.7524 55.4048L30.7584 50.2603H11.6723L11.677 55.4048ZM21.2153 0.698975C9.01147 0.698975 0.215332 10.5841 0.215332 21.6677C0.215332 26.954 2.17812 31.7768 5.41283 35.4618C7.39829 37.7243 10.5125 42.4673 11.6675 46.4418V46.449H17.3948V46.4347C17.3936 45.8664 17.3089 45.3017 17.1382 44.7584C16.4712 42.6365 14.4154 37.0416 9.72022 31.6922C7.26942 28.9008 5.95931 25.3599 5.94857 21.6677C5.92471 12.8942 13.0683 6.41773 21.2153 6.41773C29.6368 6.41773 36.4881 13.2588 36.4881 21.6677C36.4881 25.3575 35.1469 28.9174 32.7116 31.6922C28.0451 37.0071 25.9797 42.59 25.302 44.7334C25.1271 45.2844 25.0377 45.859 25.0371 46.4371V46.449H30.7644V46.443C31.9194 42.4673 35.0336 37.7243 37.019 35.463C40.2525 31.7768 42.2153 26.954 42.2153 21.6677C42.2153 10.0873 32.8131 0.698975 21.2153 0.698975Z" fill="#E5E5E5"/>
</g>
<defs>
<clipPath id="clip0_2_162">
<rect width="42" height="61" fill="white" transform="translate(0.215332 0.698975)"/>
</clipPath>
</defs>
</svg>
